<?xml version="1.0" encoding="utf-8"?>
<!-- Generator: Adobe Illustrator 21.1.0, SVG Export Plug-In . SVG Version: 6.00 Build 0)  -->
<svg version="1.1" id="Layer_1" xmlns="http://www.w3.org/2000/svg" xmlns:xlink="http://www.w3.org/1999/xlink" x="0px" y="0px"
	 viewBox="0 0 70 70" style="enable-background:new 0 0 70 70;" xml:space="preserve">
<style type="text/css">
	.st0{fill:#E0E0E0;}
</style>
<path class="st0" d="M62,17.6H6.8c-2.5,0-4.5-2-4.5-4.5v0c0-2.5,2-4.5,4.5-4.5H62c2.5,0,4.5,2,4.5,4.5v0
	C66.5,15.6,64.5,17.6,62,17.6z"/>
<path class="st0" d="M62,40.1H6.8c-2.5,0-4.5-2-4.5-4.5v0c0-2.5,2-4.5,4.5-4.5H62c2.5,0,4.5,2,4.5,4.5v0
	C66.5,38.1,64.5,40.1,62,40.1z"/>
<path class="st0" d="M62,62.7H6.8c-2.5,0-4.5-2-4.5-4.5v0c0-2.5,2-4.5,4.5-4.5H62c2.5,0,4.5,2,4.5,4.5v0
	C66.5,60.7,64.5,62.7,62,62.7z"/>
</svg>
