<?xml version="1.0" encoding="utf-8"?>
<!-- Generator: Adobe Illustrator 21.1.0, SVG Export Plug-In . SVG Version: 6.00 Build 0)  -->
<svg version="1.1" id="Layer_1" xmlns="http://www.w3.org/2000/svg" xmlns:xlink="http://www.w3.org/1999/xlink" x="0px" y="0px"
	 viewBox="0 0 557.2 557.2" style="enable-background:new 0 0 557.2 557.2;" xml:space="preserve">
<style type="text/css">
	.st0{fill:#1E1E1E;}
</style>
<path class="st0" d="M379.6,217.6h-196c-8.8,0-16-7.2-16-16v0c0-8.8,7.2-16,16-16h196c8.8,0,16,7.2,16,16v0
	C395.6,210.4,388.4,217.6,379.6,217.6z"/>
<path class="st0" d="M379.6,297.6h-196c-8.8,0-16-7.2-16-16v0c0-8.8,7.2-16,16-16h196c8.8,0,16,7.2,16,16v0
	C395.6,290.4,388.4,297.6,379.6,297.6z"/>
<path class="st0" d="M379.6,377.6h-196c-8.8,0-16-7.2-16-16v0c0-8.8,7.2-16,16-16h196c8.8,0,16,7.2,16,16v0
	C395.6,370.4,388.4,377.6,379.6,377.6z"/>
</svg>
