<?xml version="1.0" encoding="utf-8"?>
<!-- Generator: Adobe Illustrator 21.1.0, SVG Export Plug-In . SVG Version: 6.00 Build 0)  -->
<svg version="1.1" id="Layer_1" xmlns="http://www.w3.org/2000/svg" xmlns:xlink="http://www.w3.org/1999/xlink" x="0px" y="0px"
	 viewBox="0 0 60 75" style="enable-background:new 0 0 60 75;" xml:space="preserve">
<path d="M53.7,28.2l-23-21.9c-0.4-0.4-1-0.4-1.3,0l-23,21.9c-0.3,0.3-0.4,0.7-0.2,1.1c0.1,0.4,0.5,0.6,0.9,0.6h3.3V53
	c0,0.5,0.4,1,1,1h12.5v-9.1c0-3.9,2.8-7,6.3-7c3.5,0,6.3,3.2,6.3,7V54h12.5c0.5,0,1-0.4,1-1V29.9H53c0.4,0,0.7-0.2,0.9-0.6
	C54.1,28.9,54,28.5,53.7,28.2z"/>
</svg>
