<?xml version="1.0" encoding="utf-8"?>
<!-- Generator: Adobe Illustrator 21.1.0, SVG Export Plug-In . SVG Version: 6.00 Build 0)  -->
<svg version="1.1" id="Layer_1" xmlns="http://www.w3.org/2000/svg" xmlns:xlink="http://www.w3.org/1999/xlink" x="0px" y="0px"
	 viewBox="0 0 60 75" style="enable-background:new 0 0 60 75;" xml:space="preserve">
<style type="text/css">
	.st0{fill:#F0F0F0;}
</style>
<path class="st0" d="M51.7,41.4L31.3,64.3c-0.2,0.2-0.5,0.4-0.8,0.4c-0.3,0-0.6-0.1-0.8-0.4L9.3,41.4C6,37.7,5.2,32.5,7.1,27.8
	c1.9-4.5,5.9-7.4,10.8-7.7c0.3,0,0.6,0,0.9,0c4.7,0,9,2.2,11.8,5.8c2.8-3.7,7.1-5.8,11.8-5.8c0.3,0,0.6,0,0.9,0
	c4.8,0.3,8.9,3.2,10.8,7.7C55.8,32.5,55,37.7,51.7,41.4z"/>
</svg>
