<?xml version="1.0" encoding="utf-8"?>
<!-- Generator: Adobe Illustrator 21.1.0, SVG Export Plug-In . SVG Version: 6.00 Build 0)  -->
<svg version="1.1" id="Layer_1" xmlns="http://www.w3.org/2000/svg" xmlns:xlink="http://www.w3.org/1999/xlink" x="0px" y="0px"
	 viewBox="0 0 70 70" style="enable-background:new 0 0 70 70;" xml:space="preserve">
<style type="text/css">
	.st0{fill:#E0E0E0;}
</style>
<path class="st0" d="M60.9,33L35.7,9c-0.4-0.4-1-0.4-1.4,0L9.1,33c-0.3,0.3-0.4,0.8-0.3,1.2c0.2,0.4,0.5,0.7,1,0.7h3.6v25.4
	c0,0.6,0.5,1,1,1h13.6v-9.9c0-4.2,3.1-7.7,6.9-7.7c3.8,0,6.9,3.5,6.9,7.7v9.9h13.6c0.6,0,1-0.5,1-1V34.8h3.6c0.4,0,0.8-0.3,1-0.7
	C61.3,33.8,61.2,33.3,60.9,33z"/>
</svg>
