<?xml version="1.0" encoding="utf-8"?>
<!-- Generator: Adobe Illustrator 21.1.0, SVG Export Plug-In . SVG Version: 6.00 Build 0)  -->
<svg version="1.1" id="Layer_1" xmlns="http://www.w3.org/2000/svg" xmlns:xlink="http://www.w3.org/1999/xlink" x="0px" y="0px"
	 viewBox="0 0 70 70" style="enable-background:new 0 0 70 70;" xml:space="preserve">
<style type="text/css">
	.st0{fill:#22DCE3;}
</style>
<path class="st0" d="M55.3,34.3l-19.5,22c-0.2,0.2-0.5,0.3-0.8,0.3s-0.6-0.1-0.8-0.3l-19.5-22c-3.2-3.6-4-8.6-2.1-13
	c1.8-4.4,5.7-7.1,10.3-7.4c0.3,0,0.6,0,0.8,0c4.5,0,8.6,2.1,11.3,5.6c2.7-3.5,6.8-5.6,11.3-5.6c0.3,0,0.6,0,0.8,0
	c4.6,0.3,8.5,3,10.3,7.4C59.3,25.8,58.4,30.7,55.3,34.3z"/>
</svg>
