<?xml version="1.0" encoding="utf-8"?>
<!-- Generator: Adobe Illustrator 21.1.0, SVG Export Plug-In . SVG Version: 6.00 Build 0)  -->
<svg version="1.1" id="Layer_1" xmlns="http://www.w3.org/2000/svg" xmlns:xlink="http://www.w3.org/1999/xlink" x="0px" y="0px"
	 viewBox="0 0 60 75" style="enable-background:new 0 0 60 75;" xml:space="preserve">
<style type="text/css">
	.st0{fill:#E5E5E5;}
</style>
<path class="st0" d="M53.4,34.6l-6.1-3c-0.3-0.8-0.6-1.5-0.9-2.3l2.3-6.4c0.1-0.4,0-0.8-0.2-1l-2.8-2.8c-0.3-0.3-0.7-0.4-1-0.2
	l-6.4,2.3c-0.8-0.4-1.5-0.7-2.3-0.9l-3-6.1c-0.2-0.4-0.5-0.6-0.9-0.6h-4c-0.4,0-0.7,0.2-0.9,0.6l-3,6.1c-0.8,0.3-1.5,0.6-2.3,0.9
	l-6.4-2.3c-0.4-0.1-0.8,0-1,0.2l-2.8,2.8c-0.3,0.3-0.4,0.7-0.2,1l2.3,6.4c-0.4,0.8-0.7,1.5-0.9,2.3l-6.1,3C6.2,34.8,6,35.1,6,35.5v4
	c0,0.4,0.2,0.7,0.6,0.9l6.1,2.9c0.3,0.8,0.6,1.6,0.9,2.3L11.4,52c-0.1,0.4,0,0.8,0.2,1l2.8,2.8c0.3,0.3,0.7,0.4,1,0.2l6.4-2.3
	c0.7,0.4,1.5,0.7,2.3,0.9l3,6.1c0.2,0.3,0.5,0.6,0.9,0.6h4c0.4,0,0.7-0.2,0.9-0.6l3-6.1c0.8-0.3,1.5-0.6,2.3-0.9l6.4,2.3
	c0.4,0.1,0.8,0,1-0.2l2.8-2.8c0.3-0.3,0.4-0.7,0.2-1l-2.3-6.4c0.4-0.7,0.7-1.5,0.9-2.3l6.1-2.9c0.4-0.2,0.6-0.5,0.6-0.9v-4
	C54,35.1,53.8,34.8,53.4,34.6z M30,46.1c-4.7,0-8.5-3.8-8.5-8.6s3.8-8.6,8.5-8.6c4.7,0,8.6,3.8,8.6,8.6S34.7,46.1,30,46.1z"/>
</svg>
